<svg width="45" height="44" viewBox="0 0 45 44" fill="none" xmlns="http://www.w3.org/2000/svg">
<rect x="0.833008" y="0.5" width="43" height="43" rx="5.5" fill="#F7F7F8"/>
<rect x="0.833008" y="0.5" width="43" height="43" rx="5.5" stroke="#F1F1F3"/>
<g clip-path="url(#clip0_109_1319)">
<path d="M32.333 22C32.333 16.4771 27.8559 12 22.333 12C16.8102 12 12.333 16.4771 12.333 22C12.333 26.9912 15.9898 31.1283 20.7705 31.8785V24.8906H18.2314V22H20.7705V19.7969C20.7705 17.2906 22.2635 15.9062 24.5477 15.9062C25.6414 15.9062 26.7861 16.1016 26.7861 16.1016V18.5625H25.5252C24.283 18.5625 23.8955 19.3334 23.8955 20.125V22H26.6689L26.2256 24.8906H23.8955V31.8785C28.6762 31.1283 32.333 26.9912 32.333 22Z" fill="#333333"/>
</g>
<defs>
<clipPath id="clip0_109_1319">
<rect width="20" height="20" fill="white" transform="translate(12.333 12)"/>
</clipPath>
</defs>
</svg>
