<svg width="45" height="44" viewBox="0 0 45 44" fill="none" xmlns="http://www.w3.org/2000/svg">
<rect x="0.833008" y="0.5" width="43" height="43" rx="5.5" fill="#F7F7F8"/>
<rect x="0.833008" y="0.5" width="43" height="43" rx="5.5" stroke="#F1F1F3"/>
<g clip-path="url(#clip0_109_1325)">
<path d="M30.8525 12H13.8096C12.9932 12 12.333 12.6445 12.333 13.4414V30.5547C12.333 31.3516 12.9932 32 13.8096 32H30.8525C31.6689 32 32.333 31.3516 32.333 30.5586V13.4414C32.333 12.6445 31.6689 12 30.8525 12ZM18.2666 29.043H15.2979V19.4961H18.2666V29.043ZM16.7822 18.1953C15.8291 18.1953 15.0596 17.4258 15.0596 16.4766C15.0596 15.5273 15.8291 14.7578 16.7822 14.7578C17.7314 14.7578 18.501 15.5273 18.501 16.4766C18.501 17.4219 17.7314 18.1953 16.7822 18.1953ZM29.376 29.043H26.4111V24.4023C26.4111 23.2969 26.3916 21.8711 24.8682 21.8711C23.3252 21.8711 23.0908 23.0781 23.0908 24.3242V29.043H20.1299V19.4961H22.9736V20.8008H23.0127C23.4072 20.0508 24.376 19.2578 25.8174 19.2578C28.8213 19.2578 29.376 21.2344 29.376 23.8047V29.043Z" fill="#333333"/>
</g>
<defs>
<clipPath id="clip0_109_1325">
<rect width="20" height="20" fill="white" transform="translate(12.333 12)"/>
</clipPath>
</defs>
</svg>
