<svg width="45" height="44" viewBox="0 0 45 44" fill="none" xmlns="http://www.w3.org/2000/svg">
<rect x="0.833008" y="0.5" width="43" height="43" rx="5.5" fill="#F7F7F8"/>
<rect x="0.833008" y="0.5" width="43" height="43" rx="5.5" stroke="#F1F1F3"/>
<g clip-path="url(#clip0_109_1322)">
<path d="M18.6248 30.1251C26.1701 30.1251 30.2982 23.8724 30.2982 18.4517C30.2982 18.2759 30.2943 18.0962 30.2865 17.9204C31.0896 17.3397 31.7826 16.6203 32.333 15.7962C31.5851 16.129 30.791 16.3463 29.9779 16.4407C30.8341 15.9275 31.4751 15.1213 31.7822 14.1716C30.9768 14.6489 30.096 14.9856 29.1775 15.1673C28.5587 14.5098 27.7405 14.0744 26.8494 13.9285C25.9583 13.7826 25.044 13.9343 24.2478 14.3602C23.4516 14.7861 22.8178 15.4624 22.4445 16.2845C22.0713 17.1067 21.9792 18.029 22.1826 18.9087C20.5518 18.8269 18.9563 18.4032 17.4997 17.6652C16.043 16.9272 14.7578 15.8913 13.7271 14.6247C13.2033 15.5278 13.0431 16.5965 13.2789 17.6135C13.5147 18.6306 14.1289 19.5197 14.9967 20.1001C14.3452 20.0794 13.708 19.904 13.1377 19.5884V19.6392C13.1371 20.5869 13.4648 21.5056 14.0649 22.2391C14.6651 22.9726 15.5008 23.4756 16.4299 23.6626C15.8264 23.8277 15.193 23.8518 14.5787 23.7329C14.8409 24.548 15.351 25.2609 16.0378 25.7721C16.7246 26.2833 17.5539 26.5673 18.41 26.5845C16.9567 27.726 15.1615 28.3452 13.3135 28.3423C12.9857 28.3418 12.6583 28.3217 12.333 28.2821C14.2104 29.4866 16.3943 30.1263 18.6248 30.1251Z" fill="#333333"/>
</g>
<defs>
<clipPath id="clip0_109_1322">
<rect width="20" height="20" fill="white" transform="translate(12.333 12)"/>
</clipPath>
</defs>
</svg>
